<?xml version="1.0" encoding="utf-8"?>
<svg width="151" height="151" viewBox="0 0 151 151" fill="none" xmlns="http://www.w3.org/2000/svg">
<g clip-path="url(#clip0)">
<path d="M45.7 76.6701L76.4199 40.8201L107.15 76.6701" stroke="#B88A3F" stroke-width="2.5" stroke-miterlimit="10"/>
<path d="M120.6 78.6599L76.42 22.9399L32.25 78.6599" stroke="#B88A3F" stroke-width="2.5" stroke-miterlimit="10"/>
<path d="M62.3901 22.79L32.3701 60.66" stroke="#B88A3F" stroke-width="2.5" stroke-miterlimit="10"/>
<path d="M120.35 60.4899L90.1699 22.4299" stroke="#B88A3F" stroke-width="2.5" stroke-miterlimit="10"/>
<path d="M111.64 108C110.976 107.732 110.266 107.599 109.55 107.61C104.03 107.61 104.03 114.36 98.5499 114.36C93.0699 114.36 93.0299 107.61 87.5499 107.61C82.0699 107.61 82.0299 114.36 76.5499 114.36C71.0699 114.36 71.0299 107.61 65.5499 107.61C60.0699 107.61 60.0199 114.36 54.5499 114.36C49.0799 114.36 49.0299 107.61 43.5499 107.61C42.9246 107.602 42.3024 107.7 41.71 107.9" stroke="#B88A3F" stroke-width="2.5" stroke-miterlimit="10"/>
<path d="M120.64 93.5801C115.12 93.5801 115.12 86.8301 109.64 86.8301C104.16 86.8301 104.12 93.5801 98.6399 93.5801C93.1599 93.5801 93.1199 86.8301 87.6399 86.8301C82.1599 86.8301 82.1199 93.5801 76.6399 93.5801C71.1599 93.5801 71.1199 86.8301 65.6399 86.8301C60.1599 86.8301 60.1099 93.5801 54.6399 93.5801C49.1699 93.5801 49.1199 86.8301 43.6399 86.8301C38.1599 86.8301 38.1099 93.5801 32.6399 93.5801" stroke="#B88A3F" stroke-width="2.5" stroke-miterlimit="10"/>
<path d="M60.0401 79.5999C58.6001 81.3499 57.2201 83.1899 54.3401 83.1899C48.8201 83.1899 48.8201 76.4399 43.3401 76.4399C37.8601 76.4399 37.8101 83.1899 32.3401 83.1899" stroke="#B88A3F" stroke-width="2.5" stroke-miterlimit="10"/>
<path d="M120.64 83.1899C115.12 83.1899 115.12 76.4399 109.64 76.4399C104.16 76.4399 104.12 83.1899 98.6399 83.1899C95.8799 83.1899 94.4999 81.4999 93.1199 79.8199" stroke="#B88A3F" stroke-width="2.5" stroke-miterlimit="10"/>
<path d="M116.24 101.95C114.35 99.95 113.08 97.22 109.56 97.22C104.04 97.22 104.04 103.97 98.5599 103.97C93.0799 103.97 93.0399 97.22 87.5599 97.22C82.0799 97.22 82.0399 103.97 76.5599 103.97C71.0799 103.97 71.0399 97.22 65.5599 97.22C60.0799 97.22 60.0299 103.97 54.5599 103.97C49.0899 103.97 49.0399 97.22 43.5599 97.22C40.0999 97.22 38.81 99.86 36.98 101.83" stroke="#B88A3F" stroke-width="2.5" stroke-miterlimit="10"/>
<path d="M94.0499 122.61C92.2199 120.61 90.9199 118 87.4699 118C81.9499 118 81.9499 124.75 76.4699 124.75C70.9899 124.75 70.9499 118 65.4699 118C62.0199 118 60.7199 120.63 58.8899 122.61" stroke="#B88A3F" stroke-width="2.5" stroke-miterlimit="10"/>
<path d="M90.1799 22.4301C85.7379 20.9781 81.0932 20.2422 76.4199 20.2501V20.2501C71.5696 20.2421 66.7512 21.0361 62.1599 22.6001" stroke="#B88A3F" stroke-width="2.5" stroke-miterlimit="10"/>
<path d="M120.35 59.6699C119.431 51.2199 116.097 43.2137 110.746 36.6093C105.396 30.0049 98.2554 25.0821 90.1799 22.4299" stroke="#B88A3F" stroke-width="2.5" stroke-miterlimit="10"/>
<path d="M111.69 107.9C116.92 102 120.6 95.3399 120.6 88.2999V64.4199C120.598 62.8334 120.514 61.248 120.35 59.6699" stroke="#B88A3F" stroke-width="2.5" stroke-miterlimit="10"/>
<path d="M94.05 122.61C100.539 118.486 106.468 113.542 111.69 107.9" stroke="#B88A3F" stroke-width="2.5" stroke-miterlimit="10"/>
<path d="M62.16 22.6001C53.435 25.5795 45.8603 31.2132 40.4968 38.7123C35.1334 46.2115 32.2498 55.2004 32.25 64.4201V88.3001C32.25 112.7 76.42 132.48 76.42 132.48C82.527 129.62 88.419 126.321 94.05 122.61" stroke="#B88A3F" stroke-width="2.5" stroke-miterlimit="10"/>
<path d="M92.7601 79.68C90.4614 83.6427 86.8011 86.6351 82.4604 88.1C78.1198 89.5649 73.3948 89.4025 69.165 87.643C64.9352 85.8836 61.4889 82.6469 59.4678 78.5357C57.4467 74.4245 56.9885 69.7189 58.1785 65.2951C59.3684 60.8712 62.1255 57.0305 65.9364 54.488C69.7473 51.9455 74.3522 50.8746 78.8939 51.4745C83.4356 52.0744 87.6045 54.3044 90.6244 57.7492C93.6444 61.194 95.3096 65.6189 95.31 70.2C95.3113 73.5297 94.4316 76.8003 92.7601 79.68" stroke="#B88A3F" stroke-width="2.5" stroke-miterlimit="10"/>
</g>
<defs>
<clipPath id="clip0">
<rect width="90.85" height="114.85" fill="white" transform="translate(31 19)"/>
</clipPath>
</defs>
</svg>
