<?xml version="1.0" encoding="utf-8"?>
<svg width="474" height="115" viewBox="0 0 474 115" fill="none" xmlns="http://www.w3.org/2000/svg">
<g clip-path="url(#clip0)">
<path d="M15.65 58.4699L13.75 56.8399L45.42 19.8899L77.1 56.8399L75.2 58.4699L45.42 23.7299L15.65 58.4699Z" fill="#B88A3F"/>
<path d="M88.62 60.4199L45.42 5.93992L2.23002 60.4199L0.27002 58.8699L45.42 1.91992L90.58 58.8699L88.62 60.4199Z" fill="#B88A3F"/>
<path d="M30.4084 2.98788L0.394531 40.856L2.35376 42.4088L32.3676 4.54075L30.4084 2.98788Z" fill="#B88A3F"/>
<path d="M60.1553 2.62599L58.1963 4.1792L88.3659 42.2301L90.3248 40.6769L60.1553 2.62599Z" fill="#B88A3F"/>
<path d="M67.5098 96.5999C64.1598 96.5999 62.5098 94.5999 61.0198 92.7699C59.6898 91.1399 58.6398 89.8499 56.4698 89.8499C54.2998 89.8499 53.2498 91.1399 51.9098 92.7699C50.4498 94.5599 48.7798 96.5999 45.4298 96.5999C42.0798 96.5999 40.4298 94.5999 38.9398 92.7699C37.5998 91.1399 36.5498 89.8499 34.3798 89.8499C32.2098 89.8499 31.1598 91.1399 29.8298 92.7699C28.3598 94.5599 26.6898 96.5999 23.3398 96.5999C19.9898 96.5999 18.3398 94.5999 16.8498 92.7699C15.5098 91.1399 14.4598 89.8499 12.2898 89.8499C11.8037 89.8467 11.3204 89.9244 10.8598 90.0799L10.0498 87.7099C10.7714 87.4666 11.5283 87.3449 12.2898 87.3499C15.6498 87.3499 17.2898 89.3499 18.7798 91.1899C20.1198 92.8099 21.1698 94.0999 23.3398 94.0999C25.5098 94.0999 26.5598 92.8099 27.8898 91.1899C29.3598 89.3899 31.0298 87.3499 34.3798 87.3499C37.7298 87.3499 39.3798 89.3499 40.8698 91.1899C42.2098 92.8099 43.2598 94.0999 45.4298 94.0999C47.5998 94.0999 48.6498 92.8099 49.9798 91.1899C51.4498 89.3899 53.1198 87.3499 56.4698 87.3499C59.8198 87.3499 61.4698 89.3499 62.9598 91.1899C64.2898 92.8099 65.3398 94.0999 67.5098 94.0999C69.6798 94.0999 70.7298 92.8099 72.0598 91.1899C73.5298 89.3899 75.1998 87.3499 78.5498 87.3499C79.4295 87.3419 80.3023 87.5049 81.1198 87.8299L80.1798 90.1499C79.6614 89.9441 79.1075 89.8422 78.5498 89.8499C76.3798 89.8499 75.3298 91.1399 73.9998 92.7699C72.5298 94.5599 70.8598 96.5999 67.5098 96.5999Z" fill="#B88A3F"/>
<path d="M89.59 75.8401C86.24 75.8401 84.59 73.8401 83.11 72.0101C81.77 70.3801 80.72 69.1001 78.55 69.1001C76.38 69.1001 75.33 70.3801 74 72.0101C72.53 73.8101 70.86 75.8401 67.51 75.8401C64.16 75.8401 62.51 73.8401 61.02 72.0101C59.69 70.3801 58.64 69.1001 56.47 69.1001C54.3 69.1001 53.25 70.3801 51.91 72.0101C50.45 73.8101 48.78 75.8401 45.43 75.8401C42.08 75.8401 40.43 73.8401 38.94 72.0101C37.6 70.3801 36.55 69.1001 34.38 69.1001C32.21 69.1001 31.16 70.3801 29.83 72.0101C28.36 73.8101 26.69 75.8401 23.34 75.8401C19.99 75.8401 18.34 73.8401 16.85 72.0101C15.51 70.3801 14.46 69.1001 12.29 69.1001C10.12 69.1001 9.07002 70.3801 7.74002 72.0101C6.27002 73.8101 4.6 75.8401 1.25 75.8401V73.3401C3.42 73.3401 4.47002 72.0601 5.80002 70.4301C7.27002 68.6301 8.94001 66.6001 12.29 66.6001C15.64 66.6001 17.29 68.6001 18.78 70.4301C20.12 72.0601 21.17 73.3401 23.34 73.3401C25.51 73.3401 26.56 72.0601 27.89 70.4301C29.36 68.6301 31.03 66.6001 34.38 66.6001C37.73 66.6001 39.38 68.6001 40.87 70.4301C42.21 72.0601 43.26 73.3401 45.43 73.3401C47.6 73.3401 48.65 72.0601 49.98 70.4301C51.45 68.6301 53.12 66.6001 56.47 66.6001C59.82 66.6001 61.47 68.6001 62.96 70.4301C64.29 72.0601 65.34 73.3401 67.51 73.3401C69.68 73.3401 70.73 72.0601 72.06 70.4301C73.53 68.6301 75.2 66.6001 78.55 66.6001C81.9 66.6001 83.55 68.6001 85.04 70.4301C86.37 72.0601 87.43 73.3401 89.59 73.3401V75.8401Z" fill="#B88A3F"/>
<path d="M23.34 65.4299C19.99 65.4299 18.34 63.4299 16.85 61.5999C15.51 59.9699 14.46 58.6899 12.29 58.6899C10.12 58.6899 9.07002 59.9699 7.74002 61.5999C6.27002 63.3999 4.6 65.4299 1.25 65.4299V62.9299C3.42 62.9299 4.47002 61.6499 5.80002 60.0199C7.27002 58.2199 8.94001 56.1899 12.29 56.1899C15.64 56.1899 17.29 58.1899 18.78 60.0199C20.12 61.6499 21.17 62.9299 23.34 62.9299C25.51 62.9299 26.56 61.6499 27.89 60.0199L28.07 59.7999L30 61.3899L29.83 61.5999C28.36 63.3999 26.69 65.4299 23.34 65.4299Z" fill="#B88A3F"/>
<path d="M89.59 65.4299C86.24 65.4299 84.59 63.4299 83.11 61.5999C81.77 59.9699 80.72 58.6899 78.55 58.6899C76.38 58.6899 75.33 59.9699 74 61.5999C72.53 63.3999 70.86 65.4299 67.51 65.4299C64.16 65.4299 62.51 63.4299 61.02 61.5999L62.96 60.0199C64.29 61.6499 65.34 62.9299 67.51 62.9299C69.68 62.9299 70.73 61.6499 72.06 60.0199C73.53 58.2199 75.2 56.1899 78.55 56.1899C81.9 56.1899 83.55 58.1899 85.04 60.0199C86.37 61.6499 87.43 62.9299 89.59 62.9299V65.4299Z" fill="#B88A3F"/>
<path d="M67.51 86.21C64.16 86.21 62.5101 84.21 61.0201 82.38C59.6901 80.75 58.64 79.46 56.47 79.46C54.3 79.46 53.25 80.75 51.91 82.38C50.45 84.18 48.7801 86.21 45.4301 86.21C42.0801 86.21 40.43 84.21 38.94 82.38C37.6 80.75 36.55 79.46 34.38 79.46C32.21 79.46 31.16 80.75 29.83 82.38C28.36 84.18 26.6901 86.21 23.3401 86.21C19.9901 86.21 18.34 84.21 16.85 82.38C15.51 80.75 14.46 79.46 12.29 79.46C10.12 79.46 9.07005 80.75 7.74005 82.38C7.37005 82.82 7.01004 83.26 6.63004 83.68L4.79004 81.98C5.14004 81.6 5.47004 81.2 5.79004 80.8C7.26004 79 8.93003 76.96 12.28 76.96C15.63 76.96 17.2801 78.96 18.7701 80.8C20.1101 82.43 21.16 83.71 23.33 83.71C25.5 83.71 26.55 82.43 27.88 80.8C29.35 79 31.0201 76.96 34.3701 76.96C37.7201 76.96 39.37 78.96 40.86 80.8C42.2 82.43 43.25 83.71 45.42 83.71C47.59 83.71 48.64 82.43 49.97 80.8C51.44 79 53.1101 76.96 56.4601 76.96C59.8101 76.96 61.46 78.96 62.95 80.8C64.28 82.43 65.33 83.71 67.5 83.71C69.67 83.71 70.72 82.43 72.05 80.8C73.52 79 75.19 76.96 78.54 76.96C81.89 76.96 83.54 78.96 85.03 80.8C85.4 81.25 85.76 81.69 86.14 82.08L84.33 83.84C83.89 83.37 83.49 82.84 83.11 82.41C81.77 80.78 80.72 79.49 78.55 79.49C76.38 79.49 75.33 80.78 74 82.41C72.53 84.18 70.86 86.21 67.51 86.21Z" fill="#B88A3F"/>
<path d="M45.4301 106.99C42.0701 106.99 40.4301 104.99 38.9401 103.16C37.6001 101.53 36.5501 100.24 34.3801 100.24C32.2101 100.24 31.1601 101.53 29.8301 103.16C29.4701 103.6 29.1001 104.04 28.7201 104.45L26.8901 102.75C27.2401 102.38 27.5701 101.97 27.8901 101.57C29.3601 99.78 31.0301 97.74 34.3801 97.74C37.7301 97.74 39.3801 99.74 40.8701 101.57C42.2101 103.2 43.2601 104.49 45.4301 104.49C47.6001 104.49 48.6501 103.2 49.9801 101.57C51.4501 99.78 53.1201 97.74 56.4701 97.74C59.8201 97.74 61.4701 99.74 62.9601 101.57C63.2901 101.98 63.6201 102.38 63.9601 102.76L62.1301 104.46C61.7501 104.04 61.3801 103.6 61.0201 103.16C59.6901 101.53 58.6401 100.24 56.4701 100.24C54.3001 100.24 53.2501 101.53 51.9101 103.16C50.4501 104.95 48.7801 106.99 45.4301 106.99Z" fill="#B88A3F"/>
<path d="M31.56 4.78002L30.75 2.41003C40.0855 -0.73832 50.1859 -0.801419 59.56 2.23003L58.78 4.61001C49.9241 1.7405 40.3794 1.80012 31.56 4.78002V4.78002Z" fill="#B88A3F"/>
<path d="M88.0998 40.84C87.2047 32.6289 83.9636 24.8493 78.764 18.4315C73.5645 12.0136 66.6266 7.22914 58.7798 4.65002L59.5598 2.27002C67.8616 4.99906 75.2009 10.0631 80.6989 16.8557C86.1969 23.6484 89.6205 31.8818 90.5598 40.57L88.0998 40.84Z" fill="#B88A3F"/>
<path d="M81.62 89.72L79.75 88.07C85.45 81.63 88.34 75.31 88.34 69.3V45.41C88.3404 43.8702 88.2603 42.3315 88.1 40.8L90.58 40.53C90.7569 42.1506 90.8437 43.7798 90.84 45.41V69.3C90.84 75.94 87.74 82.84 81.62 89.72Z" fill="#B88A3F"/>
<path d="M63.7399 104.65L62.3599 102.56C68.7605 98.5048 74.6063 93.634 79.7498 88.0701L81.6199 89.7201C76.3332 95.4517 70.3227 100.471 63.7399 104.65V104.65Z" fill="#B88A3F"/>
<path d="M45.42 114.84L44.91 114.61C37.0933 110.937 29.626 106.562 22.6 101.54C7.60001 90.6899 5.67805e-07 79.8399 5.67805e-07 69.2999V45.4099C-0.00149778 35.9303 2.96246 26.6876 8.47662 18.9767C13.9908 11.2659 21.7789 5.47311 30.75 2.40991L31.56 4.77991C23.0811 7.67137 15.7199 13.144 10.5084 20.4304C5.2969 27.7168 2.49653 36.4516 2.5 45.4099V69.2999C2.5 91.2299 40.5 109.8 45.42 112.09C51.2789 109.306 56.9389 106.122 62.36 102.56L63.74 104.65C58.0484 108.402 52.0967 111.744 45.93 114.65L45.42 114.84Z" fill="#B88A3F"/>
<path d="M45.42 71.3301C40.9838 71.3259 36.6732 69.8572 33.1573 67.152C29.6414 64.4468 27.1171 60.6564 25.9762 56.3695C24.8354 52.0825 25.1418 47.5389 26.8481 43.4439C28.5543 39.349 31.5647 35.932 35.412 33.7234C39.2594 31.5149 43.7282 30.6384 48.1248 31.23C52.5213 31.8216 56.5995 33.8482 59.7261 36.9952C62.8528 40.1423 64.8529 44.2335 65.416 48.6338C65.979 53.0341 65.0735 57.4972 62.84 61.3301V61.3301C61.06 64.3708 58.516 66.8933 55.4603 68.6474C52.4046 70.4015 48.9434 71.3263 45.42 71.3301V71.3301ZM45.42 33.5601C42.325 33.5602 39.2845 34.3746 36.6039 35.9215C33.9232 37.4684 31.6968 39.6934 30.148 42.373C28.5993 45.0526 27.7829 48.0925 27.7807 51.1875C27.7785 54.2824 28.5906 57.3235 30.1355 60.0053C31.6804 62.6872 33.9037 64.9153 36.5821 66.466C39.2606 68.0168 42.2999 68.8355 45.3948 68.84C48.4898 68.8446 51.5315 68.0347 54.2144 66.4919C56.8974 64.949 59.1272 62.7273 60.68 60.0501C62.235 57.3689 63.0561 54.3254 63.0606 51.2259C63.0652 48.1264 62.253 45.0805 60.7058 42.3948C59.1587 39.7091 56.9312 37.4784 54.2477 35.9275C51.5642 34.3765 48.5194 33.5599 45.42 33.5601V33.5601Z" fill="#B88A3F"/>
<path d="M365.05 63.2299C362.4 59.5099 356.05 49.5299 352.93 44.0099C352.93 44.0099 345.15 43.9599 341.27 42.3199C348.84 41.1099 350.76 39.9999 350.76 39.9999C354.201 38.8434 357.351 36.9532 359.99 34.4599C361.118 33.2921 361.998 31.9073 362.575 30.3895C363.153 28.8717 363.416 27.2525 363.35 25.6299C363.35 18.9633 360.816 14.4566 355.75 12.1099C350.476 9.7295 344.745 8.53476 338.96 8.60992C337.32 8.60992 335.89 8.66995 334.68 8.78995C331.52 8.90995 328.696 8.96994 326.21 8.96994C322.349 9.01604 318.489 8.83236 314.65 8.41992V9.32993C316.497 10.5074 317.955 12.2054 318.84 14.2099C319.738 16.1993 320.231 18.3478 320.29 20.5299C320.29 20.5299 320.29 60.1499 319.98 62.2599C319.71 64.1299 319.37 66.5699 317.57 67.6299C314.919 69.2561 312.073 70.5397 309.1 71.4499L308.54 71.5899L283.19 8.58994H280.03C280.03 8.58994 260.54 63.3899 253.47 67.5899C250.771 69.2765 247.854 70.5853 244.8 71.4799V20.9799C244.75 18.8642 245.17 16.7637 246.03 14.8299C246.942 12.7615 248.406 10.9834 250.26 9.68994V8.68994C246.568 9.35548 242.82 9.66025 239.07 9.59995H230.27L217.22 50.2899L196.37 9.40994H187.45C183.394 9.46721 179.34 9.22656 175.32 8.68994V9.59995C179.51 11.1099 182.13 14.4799 184.01 18.8799C185.934 23.5027 186.838 28.486 186.66 33.4899C186.57 37.6099 186.54 41.7299 186.44 45.8399C186.35 49.5799 186.2 53.3299 185.85 57.0599C185.71 58.6199 185.53 60.1799 185.29 61.7299C185.189 62.7654 184.982 63.7875 184.67 64.7799C184.341 65.7894 183.691 66.6638 182.82 67.2699C180.106 68.944 177.184 70.2552 174.13 71.1699L173.71 71.3299L148.45 8.53995C147.404 8.71487 146.336 8.71487 145.29 8.53995C145.29 8.53995 125.8 63.4099 118.73 67.6299C116.03 69.3207 113.109 70.6298 110.05 71.5199V72.4299H110.14C114.313 72.0487 118.313 70.5816 121.743 68.1745C125.172 65.7675 127.912 62.5044 129.69 58.7099L131.97 53.6499H148.31L150.12 58.6499C153.01 66.6499 160.68 72.4299 169.19 72.4299H189.27V26.1099L211.27 68.7199L213.09 69.3599L226.66 25.9299C227.993 21.9899 229.236 19.4733 230.39 18.3799V72.3799H244.85C249.023 71.9987 253.023 70.5315 256.453 68.1245C259.883 65.7175 262.622 62.4545 264.4 58.6599L266.68 53.5999H283.05L284.86 58.5999C287.75 66.5999 295.42 72.3799 303.93 72.3799H340.14V71.3799C338.309 70.2503 336.841 68.6191 335.91 66.6799C335.05 64.7462 334.63 62.6457 334.68 60.5299V42.8399H334.95C334.95 42.8399 347.28 64.9299 347.19 64.8399C347.53 65.5146 347.791 66.2258 347.97 66.9599C348.157 67.8237 348.063 68.7246 347.704 69.5319C347.344 70.3392 346.737 71.011 345.97 71.4499V72.4499C345.97 72.4499 380.06 72.3799 381.31 72.4499V71.1399C381.31 71.1399 371.01 71.61 365.05 63.2299ZM133.61 49.5599L140.17 31.2799L146.81 49.5599H133.61ZM268.35 49.5599L274.95 31.2799L281.59 49.5599H268.35ZM334.68 41.0199V10.8399C334.92 10.5999 336.3 10.8399 338.82 11.4299C341.529 12.1725 343.963 13.6916 345.82 15.7999C347.953 18.0799 349.016 21.5266 349.01 26.1399C349.01 31.8399 347.433 35.6766 344.28 37.6499C341.526 39.4851 338.37 40.6276 335.08 40.9799L334.68 41.0199Z" fill="#B88A3F"/>
<path d="M416.72 47.56C415.189 49.6394 413.279 51.4105 411.09 52.78C409.12 53.9454 406.879 54.5762 404.59 54.61C402.967 54.6636 401.364 54.2394 399.98 53.39C399.102 52.9368 398.35 52.2738 397.79 51.46C396.998 50.1673 396.449 48.7405 396.17 47.25C395.674 42.4068 395.537 37.5335 395.76 32.67H396.07C399.099 32.7324 402.104 33.2137 405 34.1C406.478 34.4322 407.856 35.1115 409.019 36.0818C410.183 37.0522 411.098 38.2856 411.69 39.68H412.69C412.284 36.9253 412.08 34.1445 412.08 31.36C412.077 28.8077 412.281 26.2593 412.69 23.74H411.69C411.098 25.1345 410.183 26.3679 409.019 27.3383C407.856 28.3086 406.478 28.9879 405 29.32C402.104 30.2064 399.099 30.6876 396.07 30.75H395.76V22.95C395.711 21.5843 395.849 20.2184 396.17 18.89C396.514 17.3864 397.099 15.948 397.9 14.63C398.415 13.8269 399.097 13.1446 399.9 12.63C401.058 11.8718 402.428 11.5006 403.81 11.57C406.053 11.6681 408.242 12.2915 410.2 13.39C412.368 14.8116 414.273 16.5981 415.83 18.67C417.407 20.6963 418.72 22.9139 419.74 25.27H420.74C419.478 19.7756 418.83 14.1577 418.81 8.52002C409.4 9.61002 377.31 9.52002 373.45 8.52002V9.52002C375.519 10.8391 377.146 12.7478 378.12 15C379.109 17.2062 379.659 19.5837 379.74 22V47.31C379.658 49.7262 379.108 52.1034 378.12 54.31C377.146 56.5623 375.519 58.471 373.45 59.79V60.54C383.52 55.09 406.45 55.97 419.92 58.86C419.763 55.6207 419.8 52.3749 420.03 49.14C420.325 46.3409 420.867 43.5735 421.65 40.87H420.65C419.619 43.2525 418.299 45.4993 416.72 47.56V47.56Z" fill="#B88A3F"/>
<path d="M373.65 66.5499C375.513 65.3502 377.532 64.4115 379.65 63.7599C381.775 63.0856 383.943 62.5544 386.14 62.1699C390.538 61.4178 394.998 61.0829 399.46 61.1699C408.318 61.3781 417.128 62.5551 425.73 64.6799C427.83 65.1399 429.92 65.6799 432.01 66.0499C434.1 66.4199 436.19 66.8999 438.27 67.2299C442.349 67.9824 446.492 68.3341 450.64 68.2799C452.658 68.2157 454.666 67.9713 456.64 67.5499C458.646 67.0928 460.605 66.4466 462.49 65.6199C466.395 63.8144 470.122 61.6448 473.62 59.1399C470.896 62.6798 467.641 65.7765 463.97 68.3199C462.043 69.5938 459.98 70.6502 457.82 71.4699C455.631 72.2734 453.361 72.8334 451.05 73.1399C446.517 73.6874 441.934 73.6538 437.41 73.0399C433.011 72.4708 428.645 71.6731 424.33 70.6499C416.032 68.5676 407.617 66.9848 399.13 65.9099C394.9 65.38 390.642 65.1095 386.38 65.0999C382.09 64.9898 377.805 65.4778 373.65 66.5499V66.5499Z" fill="#B88A3F"/>
<path d="M461.88 36.5201C457.55 34.2101 450.88 30.52 445.61 27.36C443.499 26.093 441.744 24.3107 440.51 22.1801V22.1801C439.754 20.8448 439.361 19.3346 439.37 17.8C439.315 16.1201 439.738 14.4591 440.59 13.0101C441.311 11.7963 442.348 10.8009 443.59 10.1301C444.644 9.534 445.83 9.21086 447.04 9.19006C450.629 9.24022 454.067 10.648 456.66 13.1301C459.669 15.847 462.132 19.1117 463.92 22.7501H465.1C464.561 19.4435 464.281 16.1001 464.26 12.7501C464.26 11.4501 464.26 10.4501 464.34 9.75006C461.88 9.21006 459.1 8.75006 456.02 8.37006C453.035 7.99552 450.029 7.80515 447.02 7.80005C444.371 7.85506 441.74 8.26539 439.2 9.02005C436.322 9.65244 433.641 10.9774 431.39 12.8801C423.39 20.4901 427.26 34.79 438.48 38.61C461.91 46.61 453.72 58.0501 452.35 59.7801C451.652 60.6442 450.758 61.3298 449.743 61.7802C448.727 62.2305 447.619 62.4327 446.51 62.3701C442.87 62.3701 439.44 60.7467 436.22 57.5001C432.833 54.0168 430.063 49.9826 428.03 45.5701H426.52C427.132 48.5629 427.467 51.6058 427.52 54.6601C427.516 55.9377 427.43 57.2137 427.26 58.4801C429.973 59.9799 432.848 61.1643 435.83 62.0101C439.301 63.0281 442.885 63.6125 446.5 63.7501C451.285 63.9231 456.039 62.9241 460.35 60.8401C462.192 59.9777 463.824 58.7267 465.136 57.173C466.448 55.6194 467.408 53.8 467.95 51.8401C468.338 50.3274 468.533 48.7717 468.53 47.2101V47.1301C468.48 44.9267 467.835 42.7778 466.664 40.9103C465.494 39.0428 463.841 37.526 461.88 36.5201V36.5201Z" fill="#B88A3F"/>
<path d="M207.95 98.2201C207.963 99.0882 207.796 99.9495 207.46 100.75C207.147 101.499 206.688 102.179 206.11 102.75L205.66 103.17C205.493 103.31 205.316 103.437 205.13 103.55L208.78 111.61C208.829 111.688 208.855 111.778 208.855 111.87C208.855 111.962 208.829 112.052 208.78 112.13C208.726 112.205 208.653 112.266 208.569 112.306C208.485 112.346 208.393 112.365 208.3 112.36H205.77C205.598 112.361 205.429 112.312 205.284 112.22C205.139 112.128 205.023 111.996 204.95 111.84L201.67 104.59H199.67V111.84C199.67 111.912 199.656 111.984 199.629 112.051C199.602 112.118 199.561 112.179 199.51 112.23C199.405 112.331 199.266 112.389 199.12 112.39H196.62C196.548 112.392 196.476 112.378 196.409 112.351C196.342 112.323 196.281 112.282 196.23 112.23C196.177 112.18 196.136 112.12 196.108 112.052C196.08 111.985 196.067 111.913 196.07 111.84V92.8401C196.068 92.7689 196.081 92.6981 196.108 92.6325C196.136 92.5668 196.178 92.508 196.23 92.4601C196.28 92.4066 196.34 92.3646 196.408 92.337C196.475 92.3093 196.547 92.2967 196.62 92.3001H201.8C202.663 92.292 203.521 92.4411 204.33 92.7401C205.076 93.0194 205.756 93.4482 206.33 94.0001C206.88 94.5446 207.316 95.1941 207.61 95.9101C207.866 96.6524 207.981 97.4357 207.95 98.2201V98.2201ZM199.58 100.98H201.42C201.816 100.992 202.209 100.913 202.57 100.75C202.882 100.609 203.161 100.404 203.39 100.15C203.616 99.8946 203.786 99.5949 203.89 99.2701C204.003 98.9488 204.061 98.6107 204.06 98.2701C204.073 97.6342 203.861 97.0141 203.46 96.5201C203.247 96.2673 202.978 96.0678 202.674 95.9376C202.37 95.8074 202.04 95.75 201.71 95.7701H199.58V100.98Z" fill="#B88A3F"/>
<path d="M213.07 92.75C213.068 92.6788 213.081 92.608 213.108 92.5424C213.136 92.4767 213.178 92.4179 213.23 92.37C213.28 92.3165 213.34 92.2745 213.408 92.2469C213.475 92.2193 213.547 92.2067 213.62 92.21H216.15C216.22 92.2068 216.29 92.2196 216.354 92.2473C216.418 92.275 216.475 92.317 216.52 92.37C216.57 92.4199 216.608 92.4793 216.634 92.5447C216.66 92.61 216.672 92.6798 216.67 92.75V111.75C216.672 111.822 216.66 111.893 216.634 111.96C216.609 112.027 216.57 112.088 216.52 112.14C216.473 112.191 216.416 112.232 216.352 112.26C216.289 112.287 216.22 112.301 216.15 112.3H213.62C213.548 112.301 213.476 112.288 213.409 112.26C213.342 112.233 213.281 112.192 213.23 112.14C213.177 112.09 213.136 112.03 213.108 111.962C213.08 111.895 213.067 111.823 213.07 111.75V92.75Z" fill="#B88A3F"/>
<path d="M220.32 92.9599C220.267 92.8834 220.239 92.7927 220.239 92.6999C220.239 92.6071 220.267 92.5165 220.32 92.4399C220.372 92.3642 220.442 92.3032 220.524 92.2629C220.607 92.2226 220.698 92.2043 220.79 92.2099H223.49C223.74 92.2099 223.95 92.4099 224.1 92.8099L229.68 105.99L235.14 92.8399C235.2 92.6445 235.307 92.4662 235.45 92.3199C235.538 92.2397 235.651 92.1906 235.77 92.1799H238.5C238.59 92.173 238.681 92.1908 238.762 92.2313C238.843 92.2718 238.911 92.3335 238.96 92.4099C239.004 92.4893 239.028 92.5788 239.028 92.6699C239.028 92.761 239.004 92.8506 238.96 92.9299L230.96 112C230.909 112.09 230.837 112.165 230.75 112.22C230.659 112.277 230.556 112.311 230.45 112.32H228.72C228.616 112.314 228.515 112.28 228.43 112.22C228.348 112.162 228.279 112.087 228.23 112L220.32 92.9599Z" fill="#B88A3F"/>
<path d="M242.65 92.75C242.648 92.6798 242.66 92.6099 242.686 92.5446C242.712 92.4793 242.751 92.4199 242.8 92.37C242.851 92.318 242.911 92.277 242.979 92.2495C243.046 92.222 243.118 92.2085 243.19 92.21H245.72C245.791 92.2067 245.862 92.2194 245.928 92.2471C245.994 92.2748 246.053 92.3167 246.1 92.37C246.193 92.4747 246.242 92.6103 246.24 92.75V111.75C246.243 111.893 246.193 112.032 246.1 112.14C246.051 112.192 245.992 112.233 245.927 112.26C245.862 112.288 245.791 112.301 245.72 112.3H243.19C243.044 112.298 242.905 112.241 242.8 112.14C242.75 112.088 242.712 112.027 242.686 111.96C242.66 111.893 242.648 111.822 242.65 111.75V92.75Z" fill="#B88A3F"/>
<path d="M252.57 92.75C252.572 92.6058 252.632 92.4685 252.734 92.3675C252.837 92.2665 252.976 92.2099 253.12 92.21H262.21C262.354 92.2099 262.492 92.2665 262.595 92.3675C262.698 92.4685 262.757 92.6058 262.76 92.75V95.29C262.757 95.4341 262.698 95.5714 262.595 95.6724C262.492 95.7734 262.354 95.83 262.21 95.83H256.14V99.75H261.38C261.45 99.748 261.52 99.7603 261.585 99.7861C261.651 99.8119 261.71 99.8506 261.76 99.9C261.812 99.9506 261.853 100.011 261.88 100.078C261.908 100.145 261.921 100.217 261.92 100.29V102.84C261.917 102.982 261.86 103.118 261.759 103.219C261.658 103.32 261.522 103.377 261.38 103.38H256.14V108.82H263.14C263.212 108.819 263.284 108.832 263.351 108.86C263.419 108.887 263.479 108.928 263.53 108.98C263.582 109.031 263.623 109.091 263.65 109.158C263.678 109.225 263.691 109.297 263.69 109.37V111.84C263.69 111.912 263.676 111.984 263.649 112.051C263.621 112.118 263.581 112.179 263.53 112.23C263.425 112.331 263.286 112.388 263.14 112.39H253.14C252.994 112.388 252.855 112.331 252.75 112.23C252.699 112.179 252.658 112.118 252.631 112.051C252.604 111.984 252.59 111.912 252.59 111.84L252.57 92.75Z" fill="#B88A3F"/>
<path d="M280.57 98.22C280.578 99.0876 280.411 99.9479 280.08 100.75C279.767 101.502 279.305 102.183 278.72 102.75L278.28 103.17C278.112 103.307 277.935 103.434 277.75 103.55L281.4 111.61C281.449 111.688 281.475 111.778 281.475 111.87C281.475 111.962 281.449 112.052 281.4 112.13C281.346 112.205 281.273 112.265 281.189 112.306C281.106 112.346 281.013 112.364 280.92 112.36H278.39C278.203 112.372 278.017 112.326 277.857 112.228C277.698 112.129 277.573 111.983 277.5 111.81L274.22 104.56H272.22V111.84C272.222 111.912 272.21 111.983 272.184 112.05C272.159 112.117 272.12 112.178 272.07 112.23C271.965 112.331 271.826 112.388 271.68 112.39H269.17C269.099 112.39 269.029 112.376 268.964 112.348C268.899 112.321 268.84 112.281 268.79 112.23C268.737 112.18 268.696 112.12 268.668 112.052C268.64 111.985 268.628 111.913 268.63 111.84V92.84C268.633 92.6975 268.691 92.5617 268.791 92.461C268.892 92.3602 269.028 92.3025 269.17 92.2999H274.35C275.213 92.2909 276.071 92.4401 276.88 92.7399C277.628 93.0142 278.31 93.4436 278.88 94C279.437 94.5391 279.873 95.1901 280.16 95.91C280.444 96.6465 280.583 97.4308 280.57 98.22ZM272.19 100.98H274.03C274.574 101.008 275.113 100.856 275.561 100.547C276.01 100.237 276.343 99.7886 276.51 99.2699C276.62 98.9477 276.677 98.6102 276.68 98.2699C276.693 97.634 276.481 97.014 276.08 96.5199C275.865 96.267 275.594 96.0675 275.289 95.9373C274.983 95.8072 274.652 95.7498 274.32 95.7699H272.19V100.98Z" fill="#B88A3F"/>
<path d="M302.95 111.6C302.999 111.678 303.024 111.768 303.024 111.86C303.024 111.952 302.999 112.042 302.95 112.12C302.895 112.195 302.823 112.256 302.739 112.296C302.655 112.336 302.563 112.355 302.47 112.35H299.95C299.761 112.359 299.574 112.314 299.41 112.22C299.27 112.106 299.158 111.963 299.08 111.8L296.81 106.71H289.04L286.81 111.84C286.745 112.008 286.629 112.152 286.478 112.25C286.328 112.349 286.15 112.398 285.97 112.39H283.5C283.408 112.396 283.317 112.377 283.234 112.337C283.152 112.297 283.082 112.236 283.03 112.16C282.981 112.082 282.955 111.992 282.955 111.9C282.955 111.808 282.981 111.718 283.03 111.64L291.72 92.8201C291.79 92.65 291.909 92.5048 292.062 92.4032C292.216 92.3015 292.396 92.2482 292.58 92.25H293.73C293.918 92.2554 294.099 92.3189 294.25 92.4317C294.4 92.5445 294.512 92.7011 294.57 92.8801L302.95 111.6ZM290.78 103.17H295.3L293.14 98.11L290.78 103.17Z" fill="#B88A3F"/>
<path d="M333.76 92.2099C333.894 92.2192 334.02 92.2801 334.11 92.3799C334.236 92.5274 334.315 92.708 334.34 92.8999L337.5 111.71C337.56 112.14 337.38 112.35 336.96 112.35H334.25C334.115 112.348 333.987 112.294 333.89 112.2C333.795 112.12 333.728 112.011 333.7 111.89L331.83 100.47L327 111.69C326.937 111.886 326.823 112.062 326.67 112.2C326.553 112.299 326.404 112.352 326.25 112.35H324.79C324.625 112.355 324.464 112.303 324.333 112.202C324.202 112.102 324.109 111.96 324.07 111.8L319.26 100.52L317.42 111.89C317.396 112.013 317.329 112.123 317.23 112.2C317.184 112.248 317.128 112.286 317.066 112.312C317.004 112.338 316.937 112.351 316.87 112.35H314.23C313.8 112.35 313.62 112.14 313.68 111.71L316.84 92.8399C316.87 92.6586 316.95 92.489 317.07 92.3499C317.16 92.2501 317.286 92.1892 317.42 92.1799H319.42C319.63 92.1799 319.83 92.3599 320 92.7199L325.55 105.96L331.07 92.7499C331.25 92.3699 331.45 92.1799 331.68 92.1799L333.76 92.2099Z" fill="#B88A3F"/>
<path d="M358.95 111.6C358.999 111.678 359.025 111.768 359.025 111.86C359.025 111.952 358.999 112.042 358.95 112.12C358.898 112.195 358.827 112.256 358.745 112.296C358.663 112.336 358.572 112.355 358.48 112.35H356.03C355.845 112.357 355.661 112.312 355.5 112.22C355.354 112.113 355.24 111.967 355.17 111.8L352.89 106.71H345.13L342.85 111.84C342.786 112.007 342.672 112.149 342.523 112.247C342.374 112.346 342.198 112.396 342.02 112.39H339.55C339.457 112.396 339.364 112.379 339.28 112.338C339.196 112.298 339.123 112.237 339.07 112.16C339.019 112.083 338.992 111.993 338.992 111.9C338.992 111.808 339.019 111.717 339.07 111.64L347.75 92.8201C347.822 92.6492 347.943 92.5037 348.098 92.4021C348.253 92.3005 348.435 92.2476 348.62 92.2501H349.77C349.957 92.256 350.137 92.3199 350.286 92.4327C350.434 92.5456 350.544 92.702 350.6 92.8801L358.95 111.6ZM346.78 103.17H351.29L349.13 98.1101L346.78 103.17Z" fill="#B88A3F"/>
<path d="M372.11 92.2101C372.203 92.2056 372.295 92.2243 372.379 92.2644C372.463 92.3046 372.535 92.365 372.59 92.4401C372.64 92.5177 372.666 92.6079 372.666 92.7001C372.666 92.7923 372.64 92.8826 372.59 92.9601L367.21 105.38V111.84C367.213 111.913 367.2 111.985 367.172 112.052C367.144 112.12 367.103 112.18 367.05 112.23C366.999 112.282 366.938 112.323 366.871 112.351C366.804 112.378 366.732 112.392 366.66 112.39H364.16C364.014 112.389 363.875 112.331 363.77 112.23C363.719 112.179 363.678 112.118 363.651 112.051C363.624 111.984 363.61 111.912 363.61 111.84V105.66L358.23 93.0001C358.18 92.9226 358.153 92.8323 358.153 92.7401C358.153 92.6479 358.18 92.5577 358.23 92.4801C358.282 92.4044 358.352 92.3434 358.434 92.3031C358.517 92.2628 358.608 92.2445 358.7 92.2501H361.44C361.552 92.257 361.658 92.303 361.74 92.3801C361.87 92.5042 361.972 92.6541 362.04 92.8201L365.41 100.88L368.8 92.7701C368.94 92.4201 369.13 92.2501 369.38 92.2501L372.11 92.2101Z" fill="#B88A3F"/>
<path d="M391.82 111.6C391.869 111.678 391.895 111.768 391.895 111.86C391.895 111.952 391.869 112.042 391.82 112.12C391.765 112.195 391.693 112.256 391.609 112.296C391.525 112.336 391.433 112.355 391.34 112.35H388.9C388.711 112.359 388.524 112.314 388.36 112.22C388.22 112.106 388.108 111.963 388.03 111.8L385.76 106.71H377.95L375.71 111.84C375.645 112.008 375.529 112.152 375.378 112.25C375.228 112.349 375.05 112.398 374.87 112.39H372.4C372.307 112.395 372.215 112.376 372.131 112.336C372.047 112.296 371.975 112.235 371.92 112.16C371.871 112.082 371.845 111.992 371.845 111.9C371.845 111.808 371.871 111.718 371.92 111.64L380.61 92.8201C380.68 92.65 380.799 92.5048 380.952 92.4032C381.106 92.3015 381.286 92.2482 381.47 92.25H382.62C382.808 92.2554 382.989 92.3189 383.14 92.4317C383.29 92.5445 383.402 92.7011 383.46 92.8801L391.82 111.6ZM379.65 103.17H384.17L382.01 98.11L379.65 103.17Z" fill="#B88A3F"/>
</g>
<defs>
<clipPath id="clip0">
<rect width="473.68" height="114.84" fill="white"/>
</clipPath>
</defs>
</svg>
